<?xml version="1.0" encoding="UTF-8" standalone="no"?>
<!DOCTYPE svg PUBLIC "-//W3C//DTD SVG 1.1//EN" "http://www.w3.org/Graphics/SVG/1.1/DTD/svg11.dtd">
<!-- Created with Vectornator (http://vectornator.io/) -->
<svg height="100%" stroke-miterlimit="10" style="fill-rule:nonzero;clip-rule:evenodd;stroke-linecap:round;stroke-linejoin:round;" version="1.1" viewBox="0 0 3370.82 600.109" width="100%" xml:space="preserve" xmlns="http://www.w3.org/2000/svg" xmlns:vectornator="http://vectornator.io" xmlns:xlink="http://www.w3.org/1999/xlink">
<defs/>
<clipPath id="ArtboardFrame">
<rect height="600.109" width="3370.82" x="0" y="0"/>
</clipPath>
<g clip-path="url(#ArtboardFrame)" id="Layer-1" vectornator:layerName="Layer 1">
<path d="M921.719 120.944C914.042 121.18 913.233 131.101 923.75 156.069C937.796 189.415 909.712 201.247 864.844 201.881L845.312 258.413L779.812 179.538L667.938 204.069L678.188 174.35C629.279 162.947 592.75 152.35 592.75 152.35L289.219 233.694L0 198.975L0 1524.73L3370.81 1524.73L3370.81 198.975L3228.41 174.163L3041.69 234.35C3041.69 234.35 2849.65 222.488 2880.03 186.6C2941.91 113.516 2855.72 179.413 2855.72 179.413L2656.09 286.725L2327.44 250.319C2327.44 250.319 2307.92 259.789 2277 273.35L2267.31 303.038L2233.28 291.913C2201.26 304.994 2162.91 319.569 2121.22 333.475L2113.19 358.1L2078.97 346.913C2012.68 366.916 1941.08 383.435 1874.44 388.069L1837 445.006L1687.88 357.944L1691.38 352.6C1680.14 344.898 1669.94 335.881 1661.03 325.319L1266.34 270.6L1243.47 286.756L1228.31 265.319L1064.22 242.569C1064.22 242.569 949.136 120.101 921.719 120.944Z" fill="#e1e1dd" fill-rule="nonzero" opacity="1" stroke="none" vectornator:layerName="Curve 1"/>
</g>
</svg>
