<?xml version="1.0" encoding="UTF-8" standalone="no"?>
<!DOCTYPE svg PUBLIC "-//W3C//DTD SVG 1.1//EN" "http://www.w3.org/Graphics/SVG/1.1/DTD/svg11.dtd">
<!-- Created with Vectornator (http://vectornator.io/) -->
<svg height="100%" stroke-miterlimit="10" style="fill-rule:nonzero;clip-rule:evenodd;stroke-linecap:round;stroke-linejoin:round;" version="1.1" viewBox="0 0 3370.82 600.109" width="100%" xml:space="preserve" xmlns="http://www.w3.org/2000/svg" xmlns:vectornator="http://vectornator.io" xmlns:xlink="http://www.w3.org/1999/xlink">
<defs>
<filter color-interpolation-filters="sRGB" filterUnits="userSpaceOnUse" height="474.716" id="Filter" width="3423.31" x="-26.25" y="149.863">
<feDropShadow dx="-3.67321e-05" dy="10" flood-color="#000000" flood-opacity="1" in="SourceGraphic" result="Shadow" stdDeviation="10.5"/>
</filter>
<filter color-interpolation-filters="sRGB" filterUnits="userSpaceOnUse" height="447.216" id="Filter_2" width="3395.81" x="-12.49" y="175.393">
<feDropShadow dx="-3.67321e-05" dy="10" flood-color="#000000" flood-opacity="0" in="SourceGraphic" result="Shadow" stdDeviation="5"/>
</filter>
</defs>
<clipPath id="ArtboardFrame">
<rect height="600.109" width="3370.82" x="0" y="0"/>
</clipPath>
<g clip-path="url(#ArtboardFrame)" id="Layer-1" vectornator:layerName="Layer 1">
<path d="M921.719 166.114C914.042 166.185 913.233 169.169 923.75 176.679C937.796 186.708 909.712 190.267 864.844 190.458L845.312 207.461L779.812 183.738L667.938 191.116L678.188 182.177C629.279 178.748 592.75 175.56 592.75 175.56L289.219 200.026L0 189.584L0 588.329L3370.81 588.329L3370.81 189.584L3228.41 182.121L3041.69 200.223C3041.69 200.223 2849.65 196.656 2880.03 185.862C2941.91 163.88 2855.72 183.7 2855.72 183.7L2656.09 215.976L2327.44 205.026C2327.44 205.026 2307.92 207.875 2277 211.953L2267.31 220.882L2233.28 217.536C2201.26 221.471 2162.91 225.854 2121.22 230.037L2113.19 237.443L2078.97 234.079C2012.68 240.095 1941.08 245.063 1874.44 246.457L1837 263.582L1687.88 237.396L1691.38 235.789C1680.14 233.473 1669.94 230.761 1661.03 227.584L1266.34 211.126L1243.47 215.985L1228.31 209.538L1064.22 202.695C1064.22 202.695 949.136 165.861 921.719 166.114Z" fill="#faf7f7" fill-rule="nonzero" filter="url(#Filter)" stroke="none" vectornator:layerName="Curve 1" vectornator:shadowAngle="1.5708" vectornator:shadowColor="#000000" vectornator:shadowOffset="10" vectornator:shadowOpacity="1" vectornator:shadowRadius="21"/>
<path d="M921.729 177.894C914.052 177.965 913.243 180.949 923.76 188.459C937.806 198.488 909.722 202.047 864.854 202.238L845.322 219.241L779.822 195.518L667.948 202.896L678.198 193.957C629.289 190.528 592.76 187.34 592.76 187.34L289.229 211.806L0.01 201.364L0.01 600.109L2128.32 600.109L2348.89 600.109L3370.82 600.109L3370.82 201.364L3228.42 193.901L3041.7 212.003C3041.7 212.003 2849.66 208.436 2880.04 197.642C2941.92 175.66 2855.73 195.48 2855.73 195.48L2656.1 227.756L2327.45 216.806C2327.45 216.806 2307.93 219.655 2277.01 223.733L2267.32 232.663L2233.29 229.317C2201.27 233.251 2162.92 237.635 2121.23 241.817L2113.2 249.224L2078.98 245.859C2012.69 251.875 1941.09 256.843 1874.45 258.237L1837.01 275.362L1687.89 249.177L1691.39 247.569C1680.15 245.253 1669.95 242.541 1661.04 239.364L1266.35 222.906L1243.48 227.765L1228.32 221.318L1064.23 214.475C1064.23 214.475 949.146 177.641 921.729 177.894Z" fill="#faf7f7" fill-rule="nonzero" filter="url(#Filter_2)" stroke="none" vectornator:layerName="Curve 2" vectornator:shadowAngle="1.5708" vectornator:shadowColor="#000000" vectornator:shadowOffset="10" vectornator:shadowOpacity="0" vectornator:shadowRadius="10"/>
</g>
</svg>
