<?xml version="1.0" encoding="UTF-8" standalone="no"?>
<!DOCTYPE svg PUBLIC "-//W3C//DTD SVG 1.1//EN" "http://www.w3.org/Graphics/SVG/1.1/DTD/svg11.dtd">
<!-- Created with Vectornator (http://vectornator.io/) -->
<svg height="100%" stroke-miterlimit="10" style="fill-rule:nonzero;clip-rule:evenodd;stroke-linecap:round;stroke-linejoin:round;" version="1.1" viewBox="0 0 1353.76 1191.87" width="100%" xml:space="preserve" xmlns="http://www.w3.org/2000/svg" xmlns:vectornator="http://vectornator.io" xmlns:xlink="http://www.w3.org/1999/xlink">
<defs/>
<g id="Layer-1" vectornator:layerName="Layer 1">
<path d="M269.906 881.268L389.327 881.268L389.327 1001.02L269.906 1001.02L269.906 881.268Z" fill="#8685ef" fill-rule="nonzero" opacity="1" stroke="#8685ef" stroke-linecap="butt" stroke-linejoin="round" stroke-width="10" vectornator:layerName="Rectangle 1"/>
<path d="M269.906 1051.81L389.327 1051.81L389.327 1171.56L269.906 1171.56L269.906 1051.81Z" fill="#8685ef" fill-rule="nonzero" opacity="1" stroke="#8685ef" stroke-linecap="butt" stroke-linejoin="round" stroke-width="10" vectornator:layerName="Rectangle 12"/>
<path d="M84.9117 1051.81L204.333 1051.81L204.333 1171.56L84.9117 1171.56L84.9117 1051.81Z" fill="#8685ef" fill-rule="nonzero" opacity="1" stroke="#8685ef" stroke-linecap="butt" stroke-linejoin="round" stroke-width="10" vectornator:layerName="Rectangle 18"/>
<path d="M445.178 881.268L564.599 881.268L564.599 1001.02L445.178 1001.02L445.178 881.268Z" fill="#8685ef" fill-rule="nonzero" opacity="1" stroke="#8685ef" stroke-linecap="butt" stroke-linejoin="round" stroke-width="10" vectornator:layerName="Rectangle 2"/>
<path d="M445.178 1051.81L564.599 1051.81L564.599 1171.56L445.178 1171.56L445.178 1051.81Z" fill="#8685ef" fill-rule="nonzero" opacity="1" stroke="#8685ef" stroke-linecap="butt" stroke-linejoin="round" stroke-width="10" vectornator:layerName="Rectangle 13"/>
<path d="M445.178 714.798L564.599 714.798L564.599 834.549L445.178 834.549L445.178 714.798Z" fill="#8685ef" fill-rule="nonzero" opacity="1" stroke="#8685ef" stroke-linecap="butt" stroke-linejoin="round" stroke-width="10" vectornator:layerName="Rectangle 6"/>
<path d="M625.816 393.542L745.237 393.542L745.237 513.293L625.816 513.293L625.816 393.542Z" fill="#8685ef" fill-rule="nonzero" opacity="1" stroke="#8685ef" stroke-linecap="butt" stroke-linejoin="round" stroke-width="10" vectornator:layerName="Rectangle 9"/>
<path d="M625.816 714.798L745.237 714.798L745.237 834.549L625.816 834.549L625.816 714.798Z" fill="#8685ef" fill-rule="nonzero" opacity="1" stroke="#8685ef" stroke-linecap="butt" stroke-linejoin="round" stroke-width="10" vectornator:layerName="Rectangle 7"/>
<path d="M625.816 550.469L745.237 550.469L745.237 670.219L625.816 670.219L625.816 550.469Z" fill="#8685ef" fill-rule="nonzero" opacity="1" stroke="#8685ef" stroke-linecap="butt" stroke-linejoin="round" stroke-width="10" vectornator:layerName="Rectangle 11"/>
<path d="M914.497 440.788C914.497 470.726 914.497 513.293 914.497 513.293L795.076 513.293L795.076 393.542C795.076 393.542 828.441 393.542 858.296 393.542" fill="#8685ef" fill-rule="nonzero" opacity="1" stroke="#8685ef" stroke-linecap="butt" stroke-linejoin="round" stroke-width="10" vectornator:layerName="Curve 1"/>
<path d="M914.497 346.297L952.249 346.297L914.497 393.542" fill="#8685ef" fill-rule="nonzero" opacity="1" stroke="#8685ef" stroke-linecap="butt" stroke-linejoin="round" stroke-width="10" vectornator:layerName="Curve 2"/>
<path d="M971.125 417.165L971.125 369.919L933.373 417.165" fill="#8685ef" fill-rule="nonzero" opacity="1" stroke="#8685ef" stroke-linecap="butt" stroke-linejoin="round" stroke-width="10" vectornator:layerName="Curve 3"/>
<path d="M795.076 714.798L914.497 714.798L914.497 834.549L795.076 834.549L795.076 714.798Z" fill="#8685ef" fill-rule="nonzero" opacity="1" stroke="#8685ef" stroke-linecap="butt" stroke-linejoin="round" stroke-width="10" vectornator:layerName="Rectangle 8"/>
<path d="M625.816 881.268L745.237 881.268L745.237 1001.02L625.816 1001.02L625.816 881.268Z" fill="#8685ef" fill-rule="nonzero" opacity="1" stroke="#8685ef" stroke-linecap="butt" stroke-linejoin="round" stroke-width="10" vectornator:layerName="Rectangle 3"/>
<path d="M625.816 1051.81L745.237 1051.81L745.237 1171.56L625.816 1171.56L625.816 1051.81Z" fill="#8685ef" fill-rule="nonzero" opacity="1" stroke="#8685ef" stroke-linecap="butt" stroke-linejoin="round" stroke-width="10" vectornator:layerName="Rectangle 14"/>
<path d="M795.076 881.268L914.497 881.268L914.497 1001.02L795.076 1001.02L795.076 881.268Z" fill="#8685ef" fill-rule="nonzero" opacity="1" stroke="#8685ef" stroke-linecap="butt" stroke-linejoin="round" stroke-width="10" vectornator:layerName="Rectangle 4"/>
<path d="M795.076 1051.81L914.497 1051.81L914.497 1171.56L795.076 1171.56L795.076 1051.81Z" fill="#8685ef" fill-rule="nonzero" opacity="1" stroke="#8685ef" stroke-linecap="butt" stroke-linejoin="round" stroke-width="10" vectornator:layerName="Rectangle 15"/>
<path d="M975.853 881.268L1095.27 881.268L1095.27 1001.02L975.853 1001.02L975.853 881.268Z" fill="#8685ef" fill-rule="nonzero" opacity="1" stroke="#8685ef" stroke-linecap="butt" stroke-linejoin="round" stroke-width="10" vectornator:layerName="Rectangle 5"/>
<path d="M975.853 1051.81L1095.27 1051.81L1095.27 1171.56L975.853 1171.56L975.853 1051.81Z" fill="#8685ef" fill-rule="nonzero" opacity="1" stroke="#8685ef" stroke-linecap="butt" stroke-linejoin="round" stroke-width="10" vectornator:layerName="Rectangle 16"/>
<path d="M1149.43 1051.81L1268.85 1051.81L1268.85 1171.56L1149.43 1171.56L1149.43 1051.81Z" fill="#8685ef" fill-rule="nonzero" opacity="1" stroke="#8685ef" stroke-linecap="butt" stroke-linejoin="round" stroke-width="10" vectornator:layerName="Rectangle 17"/>
</g>
</svg>
